# xmcd CD database file
#
# Track frame offsets:
#	150
#	13354
#	39828
#	77210
#	88868
#	144050
#	164645
#	192424
#	223000
#	315276
#
# Disc length: 4791 seconds
#
# Revision: 0
# Processed by: cddbd v1.5.2PL0 Copyright (c) Steve Scherf et al.
# Submitted via: CDex 1.70beta2
#
DISCID=8212b50a
DTITLE=Melody Gardot - Live In Wien 1.7.2010
DYEAR=2010
DGENRE=Jazz
TTITLE0=Your Heart Is As Black As The Night
TTITLE1=Worrisome Heart
TTITLE2=The Rain
TTITLE3=band intros
TTITLE4=Les Etoiles
TTITLE5=Baby, I'm A Fool
TTITLE6=If The Stars Were Mine
TTITLE7=Deep Within The Corners Of My Mind
TTITLE8=Love Me Like A River Does - My One And Only Thrill - Who Will Comfort Me
TTITLE9=Summertime
EXTD=YEAR: 2010
EXTT0=
EXTT1=
EXTT2=
EXTT3=
EXTT4=
EXTT5=
EXTT6=
EXTT7=
EXTT8=
EXTT9=
PLAYORDER=
